#tb 0: 1/44100
#media_type 0: audio
#codec_id 0: pcm_s16le
#sample_rate 0: 44100
#channel_layout_name 0: stereo
0,          0,          0,     4096,    16384, 0x08d6d6cb
0,       4096,       4096,     4096,    16384, 0x72ecd7f1
0,       8192,       8192,     4096,    16384, 0xc22bdf95
0,      12288,      12288,     4096,    16384, 0x4145e759
0,      16384,      16384,     4096,    16384, 0xb2b6e759
0,      20480,      20480,     4096,    16384, 0x263de095
0,      24576,      24576,     4096,    16384, 0x6a53d4f5
0,      28672,      28672,     4096,    16384, 0x5bb5d6cb
0,      32768,      32768,     4096,    16384, 0x08d6d6cb
0,      36864,      36864,     4096,    16384, 0x72ecd7f1
0,      40960,      40960,     4096,    16384, 0xf220f28f
0,      45056,      45056,     4096,    16384, 0x4ae2eec5
0,      49152,      49152,     4096,    16384, 0x2800dc8d
0,      53248,      53248,     4096,    16384, 0x3f3fdcc5
0,      57344,      57344,     4096,    16384, 0x93d2e689
0,      61440,      61440,     4096,    16384, 0x6be3d8ad
0,      65536,      65536,     4096,    16384, 0xcf33f1c3
0,      69632,      69632,     4096,    16384, 0x6ab5bddd
0,      73728,      73728,     4096,    16384, 0x4209f1b9
0,      77824,      77824,     4096,    16384, 0xd928cf11
0,      81920,      81920,     4096,    16384, 0x9c60d077
0,      86016,      86016,     4096,    16384, 0x7f7d76e5
0,      90112,      90112,     4096,    16384, 0xd7c2df1b
0,      94208,      94208,     4096,    16384, 0x7419337f
0,      98304,      98304,     4096,    16384, 0x20509fe1
0,     102400,     102400,     4096,    16384, 0xd54986a1
0,     106496,     106496,     4096,    16384, 0xa788857d
0,     110592,     110592,     4096,    16384, 0x42d1cf27
0,     114688,     114688,     4096,    16384, 0x636c5a40
0,     118784,     118784,     4096,    16384, 0xf6f8f0a1
0,     122880,     122880,     4096,    16384, 0xcadfb568
0,     126976,     126976,     4096,    16384, 0xfecb1194
0,     131072,     131072,     4096,    16384, 0xa14cd040
0,     135168,     135168,     4096,    16384, 0x3d10db75
0,     139264,     139264,     4096,    16384, 0x5ae6dfd0
0,     143360,     143360,     4096,    16384, 0xffa9d877
0,     147456,     147456,     4096,    16384, 0xebf5c68b
0,     151552,     151552,     4096,    16384, 0x93aacec6
0,     155648,     155648,     4096,    16384, 0x8df0cd16
0,     159744,     159744,     4096,    16384, 0xee96da43
0,     163840,     163840,     4096,    16384, 0x16e3e069
0,     167936,     167936,     4096,    16384, 0xcff4db85
0,     172032,     172032,     4096,    16384, 0x864ed0c9
0,     176128,     176128,     4096,    16384, 0x9e40a88a
0,     180224,     180224,     4096,    16384, 0xce6ad747
0,     184320,     184320,     4096,    16384, 0xb3164a58
0,     188416,     188416,     4096,    16384, 0xeaa6d519
0,     192512,     192512,     4096,    16384, 0xb5a0a18b
0,     196608,     196608,     4096,    16384, 0x2387b15c
0,     200704,     200704,     4096,    16384, 0x98b35abd
0,     204800,     204800,     4096,    16384, 0xe58cc01f
0,     208896,     208896,     4096,    16384, 0x9f01a8af
0,     212992,     212992,     4096,    16384, 0xce6ad747
0,     217088,     217088,     4096,    16384, 0xb3164a58
0,     221184,     221184,     4096,    16384, 0xeaa6d519
0,     225280,     225280,     4096,    16384, 0xb5a0a18b
0,     229376,     229376,     4096,    16384, 0x2387b15c
0,     233472,     233472,     4096,    16384, 0x98b35abd
0,     237568,     237568,     4096,    16384, 0xe58cc01f
0,     241664,     241664,     4096,    16384, 0x9f01a8af
0,     245760,     245760,     4096,    16384, 0xce6ad747
0,     249856,     249856,     4096,    16384, 0xb3164a58
0,     253952,     253952,     4096,    16384, 0xeaa6d519
0,     258048,     258048,     4096,    16384, 0xb5a0a18b
0,     262144,     262144,     2456,     9824, 0xec5804d7
